G04 #@! TF.GenerationSoftware,KiCad,Pcbnew,5.0.0*
G04 #@! TF.CreationDate,2018-10-29T21:49:34+01:00*
G04 #@! TF.ProjectId,CH330,43483333302E6B696361645F70636200,rev?*
G04 #@! TF.SameCoordinates,Original*
G04 #@! TF.FileFunction,Copper,L2,Bot,Signal*
G04 #@! TF.FilePolarity,Positive*
%FSLAX46Y46*%
G04 Gerber Fmt 4.6, Leading zero omitted, Abs format (unit mm)*
G04 Created by KiCad (PCBNEW 5.0.0) date Mon Oct 29 21:49:34 2018*
%MOMM*%
%LPD*%
G01*
G04 APERTURE LIST*
G04 #@! TA.AperFunction,ComponentPad*
%ADD10R,1.700000X1.700000*%
G04 #@! TD*
G04 #@! TA.AperFunction,ComponentPad*
%ADD11O,1.700000X1.700000*%
G04 #@! TD*
G04 #@! TA.AperFunction,Conductor*
%ADD12C,0.100000*%
G04 #@! TD*
G04 #@! TA.AperFunction,SMDPad,CuDef*
%ADD13C,0.875000*%
G04 #@! TD*
G04 #@! TA.AperFunction,SMDPad,CuDef*
%ADD14R,1.380000X0.450000*%
G04 #@! TD*
G04 #@! TA.AperFunction,SMDPad,CuDef*
%ADD15R,2.100000X1.475000*%
G04 #@! TD*
G04 #@! TA.AperFunction,SMDPad,CuDef*
%ADD16R,1.900000X2.375000*%
G04 #@! TD*
G04 #@! TA.AperFunction,SMDPad,CuDef*
%ADD17R,1.900000X1.175000*%
G04 #@! TD*
G04 #@! TA.AperFunction,ViaPad*
%ADD18C,0.600000*%
G04 #@! TD*
G04 #@! TA.AperFunction,Conductor*
%ADD19C,0.200000*%
G04 #@! TD*
G04 #@! TA.AperFunction,Conductor*
%ADD20C,0.254000*%
G04 #@! TD*
G04 APERTURE END LIST*
D10*
G04 #@! TO.P,J2,1*
G04 #@! TO.N,GND*
X193800000Y-76200000D03*
D11*
G04 #@! TO.P,J2,2*
G04 #@! TO.N,/RXD*
X193800000Y-78740000D03*
G04 #@! TO.P,J2,3*
G04 #@! TO.N,/TXD*
X193800000Y-81280000D03*
G04 #@! TO.P,J2,4*
G04 #@! TO.N,VBUS*
X193800000Y-83820000D03*
G04 #@! TD*
D12*
G04 #@! TO.N,GND*
G04 #@! TO.C,C2*
G36*
X191577691Y-75876053D02*
X191598926Y-75879203D01*
X191619750Y-75884419D01*
X191639962Y-75891651D01*
X191659368Y-75900830D01*
X191677781Y-75911866D01*
X191695024Y-75924654D01*
X191710930Y-75939070D01*
X191725346Y-75954976D01*
X191738134Y-75972219D01*
X191749170Y-75990632D01*
X191758349Y-76010038D01*
X191765581Y-76030250D01*
X191770797Y-76051074D01*
X191773947Y-76072309D01*
X191775000Y-76093750D01*
X191775000Y-76531250D01*
X191773947Y-76552691D01*
X191770797Y-76573926D01*
X191765581Y-76594750D01*
X191758349Y-76614962D01*
X191749170Y-76634368D01*
X191738134Y-76652781D01*
X191725346Y-76670024D01*
X191710930Y-76685930D01*
X191695024Y-76700346D01*
X191677781Y-76713134D01*
X191659368Y-76724170D01*
X191639962Y-76733349D01*
X191619750Y-76740581D01*
X191598926Y-76745797D01*
X191577691Y-76748947D01*
X191556250Y-76750000D01*
X191043750Y-76750000D01*
X191022309Y-76748947D01*
X191001074Y-76745797D01*
X190980250Y-76740581D01*
X190960038Y-76733349D01*
X190940632Y-76724170D01*
X190922219Y-76713134D01*
X190904976Y-76700346D01*
X190889070Y-76685930D01*
X190874654Y-76670024D01*
X190861866Y-76652781D01*
X190850830Y-76634368D01*
X190841651Y-76614962D01*
X190834419Y-76594750D01*
X190829203Y-76573926D01*
X190826053Y-76552691D01*
X190825000Y-76531250D01*
X190825000Y-76093750D01*
X190826053Y-76072309D01*
X190829203Y-76051074D01*
X190834419Y-76030250D01*
X190841651Y-76010038D01*
X190850830Y-75990632D01*
X190861866Y-75972219D01*
X190874654Y-75954976D01*
X190889070Y-75939070D01*
X190904976Y-75924654D01*
X190922219Y-75911866D01*
X190940632Y-75900830D01*
X190960038Y-75891651D01*
X190980250Y-75884419D01*
X191001074Y-75879203D01*
X191022309Y-75876053D01*
X191043750Y-75875000D01*
X191556250Y-75875000D01*
X191577691Y-75876053D01*
X191577691Y-75876053D01*
G37*
D13*
G04 #@! TD*
G04 #@! TO.P,C2,2*
G04 #@! TO.N,GND*
X191300000Y-76312500D03*
D12*
G04 #@! TO.N,/V3*
G04 #@! TO.C,C2*
G36*
X191577691Y-77451053D02*
X191598926Y-77454203D01*
X191619750Y-77459419D01*
X191639962Y-77466651D01*
X191659368Y-77475830D01*
X191677781Y-77486866D01*
X191695024Y-77499654D01*
X191710930Y-77514070D01*
X191725346Y-77529976D01*
X191738134Y-77547219D01*
X191749170Y-77565632D01*
X191758349Y-77585038D01*
X191765581Y-77605250D01*
X191770797Y-77626074D01*
X191773947Y-77647309D01*
X191775000Y-77668750D01*
X191775000Y-78106250D01*
X191773947Y-78127691D01*
X191770797Y-78148926D01*
X191765581Y-78169750D01*
X191758349Y-78189962D01*
X191749170Y-78209368D01*
X191738134Y-78227781D01*
X191725346Y-78245024D01*
X191710930Y-78260930D01*
X191695024Y-78275346D01*
X191677781Y-78288134D01*
X191659368Y-78299170D01*
X191639962Y-78308349D01*
X191619750Y-78315581D01*
X191598926Y-78320797D01*
X191577691Y-78323947D01*
X191556250Y-78325000D01*
X191043750Y-78325000D01*
X191022309Y-78323947D01*
X191001074Y-78320797D01*
X190980250Y-78315581D01*
X190960038Y-78308349D01*
X190940632Y-78299170D01*
X190922219Y-78288134D01*
X190904976Y-78275346D01*
X190889070Y-78260930D01*
X190874654Y-78245024D01*
X190861866Y-78227781D01*
X190850830Y-78209368D01*
X190841651Y-78189962D01*
X190834419Y-78169750D01*
X190829203Y-78148926D01*
X190826053Y-78127691D01*
X190825000Y-78106250D01*
X190825000Y-77668750D01*
X190826053Y-77647309D01*
X190829203Y-77626074D01*
X190834419Y-77605250D01*
X190841651Y-77585038D01*
X190850830Y-77565632D01*
X190861866Y-77547219D01*
X190874654Y-77529976D01*
X190889070Y-77514070D01*
X190904976Y-77499654D01*
X190922219Y-77486866D01*
X190940632Y-77475830D01*
X190960038Y-77466651D01*
X190980250Y-77459419D01*
X191001074Y-77454203D01*
X191022309Y-77451053D01*
X191043750Y-77450000D01*
X191556250Y-77450000D01*
X191577691Y-77451053D01*
X191577691Y-77451053D01*
G37*
D13*
G04 #@! TD*
G04 #@! TO.P,C2,1*
G04 #@! TO.N,/V3*
X191300000Y-77887500D03*
D12*
G04 #@! TO.N,VBUS*
G04 #@! TO.C,C1*
G36*
X191577691Y-81776053D02*
X191598926Y-81779203D01*
X191619750Y-81784419D01*
X191639962Y-81791651D01*
X191659368Y-81800830D01*
X191677781Y-81811866D01*
X191695024Y-81824654D01*
X191710930Y-81839070D01*
X191725346Y-81854976D01*
X191738134Y-81872219D01*
X191749170Y-81890632D01*
X191758349Y-81910038D01*
X191765581Y-81930250D01*
X191770797Y-81951074D01*
X191773947Y-81972309D01*
X191775000Y-81993750D01*
X191775000Y-82431250D01*
X191773947Y-82452691D01*
X191770797Y-82473926D01*
X191765581Y-82494750D01*
X191758349Y-82514962D01*
X191749170Y-82534368D01*
X191738134Y-82552781D01*
X191725346Y-82570024D01*
X191710930Y-82585930D01*
X191695024Y-82600346D01*
X191677781Y-82613134D01*
X191659368Y-82624170D01*
X191639962Y-82633349D01*
X191619750Y-82640581D01*
X191598926Y-82645797D01*
X191577691Y-82648947D01*
X191556250Y-82650000D01*
X191043750Y-82650000D01*
X191022309Y-82648947D01*
X191001074Y-82645797D01*
X190980250Y-82640581D01*
X190960038Y-82633349D01*
X190940632Y-82624170D01*
X190922219Y-82613134D01*
X190904976Y-82600346D01*
X190889070Y-82585930D01*
X190874654Y-82570024D01*
X190861866Y-82552781D01*
X190850830Y-82534368D01*
X190841651Y-82514962D01*
X190834419Y-82494750D01*
X190829203Y-82473926D01*
X190826053Y-82452691D01*
X190825000Y-82431250D01*
X190825000Y-81993750D01*
X190826053Y-81972309D01*
X190829203Y-81951074D01*
X190834419Y-81930250D01*
X190841651Y-81910038D01*
X190850830Y-81890632D01*
X190861866Y-81872219D01*
X190874654Y-81854976D01*
X190889070Y-81839070D01*
X190904976Y-81824654D01*
X190922219Y-81811866D01*
X190940632Y-81800830D01*
X190960038Y-81791651D01*
X190980250Y-81784419D01*
X191001074Y-81779203D01*
X191022309Y-81776053D01*
X191043750Y-81775000D01*
X191556250Y-81775000D01*
X191577691Y-81776053D01*
X191577691Y-81776053D01*
G37*
D13*
G04 #@! TD*
G04 #@! TO.P,C1,1*
G04 #@! TO.N,VBUS*
X191300000Y-82212500D03*
D12*
G04 #@! TO.N,GND*
G04 #@! TO.C,C1*
G36*
X191577691Y-83351053D02*
X191598926Y-83354203D01*
X191619750Y-83359419D01*
X191639962Y-83366651D01*
X191659368Y-83375830D01*
X191677781Y-83386866D01*
X191695024Y-83399654D01*
X191710930Y-83414070D01*
X191725346Y-83429976D01*
X191738134Y-83447219D01*
X191749170Y-83465632D01*
X191758349Y-83485038D01*
X191765581Y-83505250D01*
X191770797Y-83526074D01*
X191773947Y-83547309D01*
X191775000Y-83568750D01*
X191775000Y-84006250D01*
X191773947Y-84027691D01*
X191770797Y-84048926D01*
X191765581Y-84069750D01*
X191758349Y-84089962D01*
X191749170Y-84109368D01*
X191738134Y-84127781D01*
X191725346Y-84145024D01*
X191710930Y-84160930D01*
X191695024Y-84175346D01*
X191677781Y-84188134D01*
X191659368Y-84199170D01*
X191639962Y-84208349D01*
X191619750Y-84215581D01*
X191598926Y-84220797D01*
X191577691Y-84223947D01*
X191556250Y-84225000D01*
X191043750Y-84225000D01*
X191022309Y-84223947D01*
X191001074Y-84220797D01*
X190980250Y-84215581D01*
X190960038Y-84208349D01*
X190940632Y-84199170D01*
X190922219Y-84188134D01*
X190904976Y-84175346D01*
X190889070Y-84160930D01*
X190874654Y-84145024D01*
X190861866Y-84127781D01*
X190850830Y-84109368D01*
X190841651Y-84089962D01*
X190834419Y-84069750D01*
X190829203Y-84048926D01*
X190826053Y-84027691D01*
X190825000Y-84006250D01*
X190825000Y-83568750D01*
X190826053Y-83547309D01*
X190829203Y-83526074D01*
X190834419Y-83505250D01*
X190841651Y-83485038D01*
X190850830Y-83465632D01*
X190861866Y-83447219D01*
X190874654Y-83429976D01*
X190889070Y-83414070D01*
X190904976Y-83399654D01*
X190922219Y-83386866D01*
X190940632Y-83375830D01*
X190960038Y-83366651D01*
X190980250Y-83359419D01*
X191001074Y-83354203D01*
X191022309Y-83351053D01*
X191043750Y-83350000D01*
X191556250Y-83350000D01*
X191577691Y-83351053D01*
X191577691Y-83351053D01*
G37*
D13*
G04 #@! TD*
G04 #@! TO.P,C1,2*
G04 #@! TO.N,GND*
X191300000Y-83787500D03*
D14*
G04 #@! TO.P,J1,1*
G04 #@! TO.N,VBUS*
X189210000Y-81300000D03*
G04 #@! TO.P,J1,2*
G04 #@! TO.N,/D-*
X189210000Y-80650000D03*
G04 #@! TO.P,J1,3*
G04 #@! TO.N,/D+*
X189210000Y-80000000D03*
G04 #@! TO.P,J1,4*
G04 #@! TO.N,Net-(J1-Pad4)*
X189210000Y-79350000D03*
G04 #@! TO.P,J1,5*
G04 #@! TO.N,GND*
X189210000Y-78700000D03*
D15*
G04 #@! TO.P,J1,6*
X188850000Y-82462500D03*
X188850000Y-77537500D03*
D16*
X186550000Y-82910000D03*
X186550000Y-77090000D03*
D17*
X186550000Y-80840000D03*
X186550000Y-79160000D03*
G04 #@! TD*
D18*
G04 #@! TO.N,/D+*
X188074990Y-79845779D03*
G04 #@! TO.N,/D-*
X188074990Y-80778907D03*
G04 #@! TO.N,GND*
X187886325Y-81556355D03*
G04 #@! TO.N,/V3*
X191400000Y-77300000D03*
G04 #@! TD*
D19*
G04 #@! TO.N,/D+*
X189210000Y-80000000D02*
X188229211Y-80000000D01*
X188229211Y-80000000D02*
X188074990Y-79845779D01*
G04 #@! TO.N,/D-*
X189210000Y-80650000D02*
X188203897Y-80650000D01*
X188203897Y-80650000D02*
X188074990Y-80778907D01*
G04 #@! TO.N,/V3*
X191400000Y-77787500D02*
X191300000Y-77887500D01*
X191400000Y-77300000D02*
X191400000Y-77787500D01*
G04 #@! TD*
D20*
G04 #@! TO.N,VBUS*
G36*
X192910197Y-82689803D02*
X192951399Y-82717333D01*
X193000000Y-82727000D01*
X194347394Y-82727000D01*
X194519001Y-82898607D01*
X194519001Y-84519000D01*
X192327000Y-84519000D01*
X192327000Y-83100000D01*
X192317333Y-83051399D01*
X192289803Y-83010197D01*
X192248601Y-82982667D01*
X192200000Y-82973000D01*
X191613884Y-82973000D01*
X191556250Y-82961536D01*
X191043750Y-82961536D01*
X190986116Y-82973000D01*
X190627000Y-82973000D01*
X190627000Y-82100000D01*
X190617333Y-82051399D01*
X190589803Y-82010197D01*
X190529416Y-81976454D01*
X190288464Y-81919084D01*
X190288464Y-81725000D01*
X190258894Y-81576341D01*
X190174686Y-81450314D01*
X190048659Y-81366106D01*
X189900000Y-81336536D01*
X188532382Y-81336536D01*
X188527000Y-81323543D01*
X188527000Y-81289977D01*
X188553513Y-81263464D01*
X189900000Y-81263464D01*
X190048659Y-81233894D01*
X190174686Y-81149686D01*
X190189844Y-81127000D01*
X191347394Y-81127000D01*
X192910197Y-82689803D01*
X192910197Y-82689803D01*
G37*
X192910197Y-82689803D02*
X192951399Y-82717333D01*
X193000000Y-82727000D01*
X194347394Y-82727000D01*
X194519001Y-82898607D01*
X194519001Y-84519000D01*
X192327000Y-84519000D01*
X192327000Y-83100000D01*
X192317333Y-83051399D01*
X192289803Y-83010197D01*
X192248601Y-82982667D01*
X192200000Y-82973000D01*
X191613884Y-82973000D01*
X191556250Y-82961536D01*
X191043750Y-82961536D01*
X190986116Y-82973000D01*
X190627000Y-82973000D01*
X190627000Y-82100000D01*
X190617333Y-82051399D01*
X190589803Y-82010197D01*
X190529416Y-81976454D01*
X190288464Y-81919084D01*
X190288464Y-81725000D01*
X190258894Y-81576341D01*
X190174686Y-81450314D01*
X190048659Y-81366106D01*
X189900000Y-81336536D01*
X188532382Y-81336536D01*
X188527000Y-81323543D01*
X188527000Y-81289977D01*
X188553513Y-81263464D01*
X189900000Y-81263464D01*
X190048659Y-81233894D01*
X190174686Y-81149686D01*
X190189844Y-81127000D01*
X191347394Y-81127000D01*
X192910197Y-82689803D01*
G04 #@! TO.N,GND*
G36*
X194519000Y-77739910D02*
X194280312Y-77580424D01*
X193921239Y-77509000D01*
X193678761Y-77509000D01*
X193319688Y-77580424D01*
X192912499Y-77852499D01*
X192640424Y-78259688D01*
X192544884Y-78740000D01*
X192640424Y-79220312D01*
X192912499Y-79627501D01*
X193319688Y-79899576D01*
X193678761Y-79971000D01*
X193921239Y-79971000D01*
X194280312Y-79899576D01*
X194519000Y-79740089D01*
X194519001Y-80279911D01*
X194280312Y-80120424D01*
X193921239Y-80049000D01*
X193678761Y-80049000D01*
X193319688Y-80120424D01*
X192912499Y-80392499D01*
X192640424Y-80799688D01*
X192544884Y-81280000D01*
X192625848Y-81687032D01*
X191669408Y-80730592D01*
X191545802Y-80648002D01*
X191400000Y-80619000D01*
X190288464Y-80619000D01*
X190288464Y-80425000D01*
X190268573Y-80325000D01*
X190288464Y-80225000D01*
X190288464Y-79775000D01*
X190268573Y-79675000D01*
X190288464Y-79575000D01*
X190288464Y-79125000D01*
X190258894Y-78976341D01*
X190174686Y-78850314D01*
X190048659Y-78766106D01*
X189900000Y-78736536D01*
X188520000Y-78736536D01*
X188371341Y-78766106D01*
X188245314Y-78850314D01*
X188161106Y-78976341D01*
X188131536Y-79125000D01*
X188131536Y-79164779D01*
X187939531Y-79164779D01*
X187689234Y-79268455D01*
X187497666Y-79460023D01*
X187393990Y-79710320D01*
X187393990Y-79981238D01*
X187497666Y-80231535D01*
X187578474Y-80312343D01*
X187497666Y-80393151D01*
X187393990Y-80643448D01*
X187393990Y-80914366D01*
X187497666Y-81164663D01*
X187689234Y-81356231D01*
X187939531Y-81459907D01*
X188019000Y-81459907D01*
X188019000Y-81600000D01*
X188075518Y-81799681D01*
X188176633Y-81908655D01*
X188311753Y-81970639D01*
X190119000Y-82400936D01*
X190119000Y-83100000D01*
X190148002Y-83245802D01*
X190230592Y-83369408D01*
X190354198Y-83451998D01*
X190500000Y-83481000D01*
X191819000Y-83481000D01*
X191819000Y-84519000D01*
X185481000Y-84519000D01*
X185481000Y-77668750D01*
X190436536Y-77668750D01*
X190436536Y-78106250D01*
X190482757Y-78338621D01*
X190614385Y-78535615D01*
X190811379Y-78667243D01*
X191043750Y-78713464D01*
X191556250Y-78713464D01*
X191788621Y-78667243D01*
X191985615Y-78535615D01*
X192117243Y-78338621D01*
X192163464Y-78106250D01*
X192163464Y-77668750D01*
X192117243Y-77436379D01*
X192081000Y-77382138D01*
X192081000Y-77164541D01*
X191977324Y-76914244D01*
X191785756Y-76722676D01*
X191535459Y-76619000D01*
X191264541Y-76619000D01*
X191014244Y-76722676D01*
X190822676Y-76914244D01*
X190719000Y-77164541D01*
X190719000Y-77169483D01*
X190614385Y-77239385D01*
X190482757Y-77436379D01*
X190436536Y-77668750D01*
X185481000Y-77668750D01*
X185481000Y-75481000D01*
X194519000Y-75481000D01*
X194519000Y-77739910D01*
X194519000Y-77739910D01*
G37*
X194519000Y-77739910D02*
X194280312Y-77580424D01*
X193921239Y-77509000D01*
X193678761Y-77509000D01*
X193319688Y-77580424D01*
X192912499Y-77852499D01*
X192640424Y-78259688D01*
X192544884Y-78740000D01*
X192640424Y-79220312D01*
X192912499Y-79627501D01*
X193319688Y-79899576D01*
X193678761Y-79971000D01*
X193921239Y-79971000D01*
X194280312Y-79899576D01*
X194519000Y-79740089D01*
X194519001Y-80279911D01*
X194280312Y-80120424D01*
X193921239Y-80049000D01*
X193678761Y-80049000D01*
X193319688Y-80120424D01*
X192912499Y-80392499D01*
X192640424Y-80799688D01*
X192544884Y-81280000D01*
X192625848Y-81687032D01*
X191669408Y-80730592D01*
X191545802Y-80648002D01*
X191400000Y-80619000D01*
X190288464Y-80619000D01*
X190288464Y-80425000D01*
X190268573Y-80325000D01*
X190288464Y-80225000D01*
X190288464Y-79775000D01*
X190268573Y-79675000D01*
X190288464Y-79575000D01*
X190288464Y-79125000D01*
X190258894Y-78976341D01*
X190174686Y-78850314D01*
X190048659Y-78766106D01*
X189900000Y-78736536D01*
X188520000Y-78736536D01*
X188371341Y-78766106D01*
X188245314Y-78850314D01*
X188161106Y-78976341D01*
X188131536Y-79125000D01*
X188131536Y-79164779D01*
X187939531Y-79164779D01*
X187689234Y-79268455D01*
X187497666Y-79460023D01*
X187393990Y-79710320D01*
X187393990Y-79981238D01*
X187497666Y-80231535D01*
X187578474Y-80312343D01*
X187497666Y-80393151D01*
X187393990Y-80643448D01*
X187393990Y-80914366D01*
X187497666Y-81164663D01*
X187689234Y-81356231D01*
X187939531Y-81459907D01*
X188019000Y-81459907D01*
X188019000Y-81600000D01*
X188075518Y-81799681D01*
X188176633Y-81908655D01*
X188311753Y-81970639D01*
X190119000Y-82400936D01*
X190119000Y-83100000D01*
X190148002Y-83245802D01*
X190230592Y-83369408D01*
X190354198Y-83451998D01*
X190500000Y-83481000D01*
X191819000Y-83481000D01*
X191819000Y-84519000D01*
X185481000Y-84519000D01*
X185481000Y-77668750D01*
X190436536Y-77668750D01*
X190436536Y-78106250D01*
X190482757Y-78338621D01*
X190614385Y-78535615D01*
X190811379Y-78667243D01*
X191043750Y-78713464D01*
X191556250Y-78713464D01*
X191788621Y-78667243D01*
X191985615Y-78535615D01*
X192117243Y-78338621D01*
X192163464Y-78106250D01*
X192163464Y-77668750D01*
X192117243Y-77436379D01*
X192081000Y-77382138D01*
X192081000Y-77164541D01*
X191977324Y-76914244D01*
X191785756Y-76722676D01*
X191535459Y-76619000D01*
X191264541Y-76619000D01*
X191014244Y-76722676D01*
X190822676Y-76914244D01*
X190719000Y-77164541D01*
X190719000Y-77169483D01*
X190614385Y-77239385D01*
X190482757Y-77436379D01*
X190436536Y-77668750D01*
X185481000Y-77668750D01*
X185481000Y-75481000D01*
X194519000Y-75481000D01*
X194519000Y-77739910D01*
G04 #@! TD*
M02*
