G04 #@! TF.GenerationSoftware,KiCad,Pcbnew,5.0.0*
G04 #@! TF.CreationDate,2018-10-29T21:49:34+01:00*
G04 #@! TF.ProjectId,CH330,43483333302E6B696361645F70636200,rev?*
G04 #@! TF.SameCoordinates,Original*
G04 #@! TF.FileFunction,Soldermask,Bot*
G04 #@! TF.FilePolarity,Negative*
%FSLAX46Y46*%
G04 Gerber Fmt 4.6, Leading zero omitted, Abs format (unit mm)*
G04 Created by KiCad (PCBNEW 5.0.0) date Mon Oct 29 21:49:34 2018*
%MOMM*%
%LPD*%
G01*
G04 APERTURE LIST*
%ADD10R,2.100000X2.100000*%
%ADD11O,2.100000X2.100000*%
%ADD12C,0.100000*%
%ADD13C,1.275000*%
%ADD14R,1.780000X0.850000*%
%ADD15R,2.500000X1.875000*%
%ADD16R,2.300000X2.775000*%
%ADD17R,2.300000X1.575000*%
G04 APERTURE END LIST*
D10*
G04 #@! TO.C,J2*
X193800000Y-76200000D03*
D11*
X193800000Y-78740000D03*
X193800000Y-81280000D03*
X193800000Y-83820000D03*
G04 #@! TD*
D12*
G04 #@! TO.C,C2*
G36*
X191687493Y-75676535D02*
X191718435Y-75681125D01*
X191748778Y-75688725D01*
X191778230Y-75699263D01*
X191806508Y-75712638D01*
X191833338Y-75728719D01*
X191858463Y-75747353D01*
X191881640Y-75768360D01*
X191902647Y-75791537D01*
X191921281Y-75816662D01*
X191937362Y-75843492D01*
X191950737Y-75871770D01*
X191961275Y-75901222D01*
X191968875Y-75931565D01*
X191973465Y-75962507D01*
X191975000Y-75993750D01*
X191975000Y-76631250D01*
X191973465Y-76662493D01*
X191968875Y-76693435D01*
X191961275Y-76723778D01*
X191950737Y-76753230D01*
X191937362Y-76781508D01*
X191921281Y-76808338D01*
X191902647Y-76833463D01*
X191881640Y-76856640D01*
X191858463Y-76877647D01*
X191833338Y-76896281D01*
X191806508Y-76912362D01*
X191778230Y-76925737D01*
X191748778Y-76936275D01*
X191718435Y-76943875D01*
X191687493Y-76948465D01*
X191656250Y-76950000D01*
X190943750Y-76950000D01*
X190912507Y-76948465D01*
X190881565Y-76943875D01*
X190851222Y-76936275D01*
X190821770Y-76925737D01*
X190793492Y-76912362D01*
X190766662Y-76896281D01*
X190741537Y-76877647D01*
X190718360Y-76856640D01*
X190697353Y-76833463D01*
X190678719Y-76808338D01*
X190662638Y-76781508D01*
X190649263Y-76753230D01*
X190638725Y-76723778D01*
X190631125Y-76693435D01*
X190626535Y-76662493D01*
X190625000Y-76631250D01*
X190625000Y-75993750D01*
X190626535Y-75962507D01*
X190631125Y-75931565D01*
X190638725Y-75901222D01*
X190649263Y-75871770D01*
X190662638Y-75843492D01*
X190678719Y-75816662D01*
X190697353Y-75791537D01*
X190718360Y-75768360D01*
X190741537Y-75747353D01*
X190766662Y-75728719D01*
X190793492Y-75712638D01*
X190821770Y-75699263D01*
X190851222Y-75688725D01*
X190881565Y-75681125D01*
X190912507Y-75676535D01*
X190943750Y-75675000D01*
X191656250Y-75675000D01*
X191687493Y-75676535D01*
X191687493Y-75676535D01*
G37*
D13*
X191300000Y-76312500D03*
D12*
G36*
X191687493Y-77251535D02*
X191718435Y-77256125D01*
X191748778Y-77263725D01*
X191778230Y-77274263D01*
X191806508Y-77287638D01*
X191833338Y-77303719D01*
X191858463Y-77322353D01*
X191881640Y-77343360D01*
X191902647Y-77366537D01*
X191921281Y-77391662D01*
X191937362Y-77418492D01*
X191950737Y-77446770D01*
X191961275Y-77476222D01*
X191968875Y-77506565D01*
X191973465Y-77537507D01*
X191975000Y-77568750D01*
X191975000Y-78206250D01*
X191973465Y-78237493D01*
X191968875Y-78268435D01*
X191961275Y-78298778D01*
X191950737Y-78328230D01*
X191937362Y-78356508D01*
X191921281Y-78383338D01*
X191902647Y-78408463D01*
X191881640Y-78431640D01*
X191858463Y-78452647D01*
X191833338Y-78471281D01*
X191806508Y-78487362D01*
X191778230Y-78500737D01*
X191748778Y-78511275D01*
X191718435Y-78518875D01*
X191687493Y-78523465D01*
X191656250Y-78525000D01*
X190943750Y-78525000D01*
X190912507Y-78523465D01*
X190881565Y-78518875D01*
X190851222Y-78511275D01*
X190821770Y-78500737D01*
X190793492Y-78487362D01*
X190766662Y-78471281D01*
X190741537Y-78452647D01*
X190718360Y-78431640D01*
X190697353Y-78408463D01*
X190678719Y-78383338D01*
X190662638Y-78356508D01*
X190649263Y-78328230D01*
X190638725Y-78298778D01*
X190631125Y-78268435D01*
X190626535Y-78237493D01*
X190625000Y-78206250D01*
X190625000Y-77568750D01*
X190626535Y-77537507D01*
X190631125Y-77506565D01*
X190638725Y-77476222D01*
X190649263Y-77446770D01*
X190662638Y-77418492D01*
X190678719Y-77391662D01*
X190697353Y-77366537D01*
X190718360Y-77343360D01*
X190741537Y-77322353D01*
X190766662Y-77303719D01*
X190793492Y-77287638D01*
X190821770Y-77274263D01*
X190851222Y-77263725D01*
X190881565Y-77256125D01*
X190912507Y-77251535D01*
X190943750Y-77250000D01*
X191656250Y-77250000D01*
X191687493Y-77251535D01*
X191687493Y-77251535D01*
G37*
D13*
X191300000Y-77887500D03*
G04 #@! TD*
D12*
G04 #@! TO.C,C1*
G36*
X191687493Y-81576535D02*
X191718435Y-81581125D01*
X191748778Y-81588725D01*
X191778230Y-81599263D01*
X191806508Y-81612638D01*
X191833338Y-81628719D01*
X191858463Y-81647353D01*
X191881640Y-81668360D01*
X191902647Y-81691537D01*
X191921281Y-81716662D01*
X191937362Y-81743492D01*
X191950737Y-81771770D01*
X191961275Y-81801222D01*
X191968875Y-81831565D01*
X191973465Y-81862507D01*
X191975000Y-81893750D01*
X191975000Y-82531250D01*
X191973465Y-82562493D01*
X191968875Y-82593435D01*
X191961275Y-82623778D01*
X191950737Y-82653230D01*
X191937362Y-82681508D01*
X191921281Y-82708338D01*
X191902647Y-82733463D01*
X191881640Y-82756640D01*
X191858463Y-82777647D01*
X191833338Y-82796281D01*
X191806508Y-82812362D01*
X191778230Y-82825737D01*
X191748778Y-82836275D01*
X191718435Y-82843875D01*
X191687493Y-82848465D01*
X191656250Y-82850000D01*
X190943750Y-82850000D01*
X190912507Y-82848465D01*
X190881565Y-82843875D01*
X190851222Y-82836275D01*
X190821770Y-82825737D01*
X190793492Y-82812362D01*
X190766662Y-82796281D01*
X190741537Y-82777647D01*
X190718360Y-82756640D01*
X190697353Y-82733463D01*
X190678719Y-82708338D01*
X190662638Y-82681508D01*
X190649263Y-82653230D01*
X190638725Y-82623778D01*
X190631125Y-82593435D01*
X190626535Y-82562493D01*
X190625000Y-82531250D01*
X190625000Y-81893750D01*
X190626535Y-81862507D01*
X190631125Y-81831565D01*
X190638725Y-81801222D01*
X190649263Y-81771770D01*
X190662638Y-81743492D01*
X190678719Y-81716662D01*
X190697353Y-81691537D01*
X190718360Y-81668360D01*
X190741537Y-81647353D01*
X190766662Y-81628719D01*
X190793492Y-81612638D01*
X190821770Y-81599263D01*
X190851222Y-81588725D01*
X190881565Y-81581125D01*
X190912507Y-81576535D01*
X190943750Y-81575000D01*
X191656250Y-81575000D01*
X191687493Y-81576535D01*
X191687493Y-81576535D01*
G37*
D13*
X191300000Y-82212500D03*
D12*
G36*
X191687493Y-83151535D02*
X191718435Y-83156125D01*
X191748778Y-83163725D01*
X191778230Y-83174263D01*
X191806508Y-83187638D01*
X191833338Y-83203719D01*
X191858463Y-83222353D01*
X191881640Y-83243360D01*
X191902647Y-83266537D01*
X191921281Y-83291662D01*
X191937362Y-83318492D01*
X191950737Y-83346770D01*
X191961275Y-83376222D01*
X191968875Y-83406565D01*
X191973465Y-83437507D01*
X191975000Y-83468750D01*
X191975000Y-84106250D01*
X191973465Y-84137493D01*
X191968875Y-84168435D01*
X191961275Y-84198778D01*
X191950737Y-84228230D01*
X191937362Y-84256508D01*
X191921281Y-84283338D01*
X191902647Y-84308463D01*
X191881640Y-84331640D01*
X191858463Y-84352647D01*
X191833338Y-84371281D01*
X191806508Y-84387362D01*
X191778230Y-84400737D01*
X191748778Y-84411275D01*
X191718435Y-84418875D01*
X191687493Y-84423465D01*
X191656250Y-84425000D01*
X190943750Y-84425000D01*
X190912507Y-84423465D01*
X190881565Y-84418875D01*
X190851222Y-84411275D01*
X190821770Y-84400737D01*
X190793492Y-84387362D01*
X190766662Y-84371281D01*
X190741537Y-84352647D01*
X190718360Y-84331640D01*
X190697353Y-84308463D01*
X190678719Y-84283338D01*
X190662638Y-84256508D01*
X190649263Y-84228230D01*
X190638725Y-84198778D01*
X190631125Y-84168435D01*
X190626535Y-84137493D01*
X190625000Y-84106250D01*
X190625000Y-83468750D01*
X190626535Y-83437507D01*
X190631125Y-83406565D01*
X190638725Y-83376222D01*
X190649263Y-83346770D01*
X190662638Y-83318492D01*
X190678719Y-83291662D01*
X190697353Y-83266537D01*
X190718360Y-83243360D01*
X190741537Y-83222353D01*
X190766662Y-83203719D01*
X190793492Y-83187638D01*
X190821770Y-83174263D01*
X190851222Y-83163725D01*
X190881565Y-83156125D01*
X190912507Y-83151535D01*
X190943750Y-83150000D01*
X191656250Y-83150000D01*
X191687493Y-83151535D01*
X191687493Y-83151535D01*
G37*
D13*
X191300000Y-83787500D03*
G04 #@! TD*
D14*
G04 #@! TO.C,J1*
X189210000Y-81300000D03*
X189210000Y-80650000D03*
X189210000Y-80000000D03*
X189210000Y-79350000D03*
X189210000Y-78700000D03*
D15*
X188850000Y-82462500D03*
X188850000Y-77537500D03*
D16*
X186550000Y-82910000D03*
X186550000Y-77090000D03*
D17*
X186550000Y-80840000D03*
X186550000Y-79160000D03*
G04 #@! TD*
M02*
