G04 #@! TF.GenerationSoftware,KiCad,Pcbnew,5.0.0*
G04 #@! TF.CreationDate,2018-10-29T21:49:34+01:00*
G04 #@! TF.ProjectId,CH330,43483333302E6B696361645F70636200,rev?*
G04 #@! TF.SameCoordinates,Original*
G04 #@! TF.FileFunction,Copper,L1,Top,Signal*
G04 #@! TF.FilePolarity,Positive*
%FSLAX46Y46*%
G04 Gerber Fmt 4.6, Leading zero omitted, Abs format (unit mm)*
G04 Created by KiCad (PCBNEW 5.0.0) date Mon Oct 29 21:49:34 2018*
%MOMM*%
%LPD*%
G01*
G04 APERTURE LIST*
G04 #@! TA.AperFunction,ComponentPad*
%ADD10R,1.700000X1.700000*%
G04 #@! TD*
G04 #@! TA.AperFunction,ComponentPad*
%ADD11O,1.700000X1.700000*%
G04 #@! TD*
G04 #@! TA.AperFunction,Conductor*
%ADD12C,0.100000*%
G04 #@! TD*
G04 #@! TA.AperFunction,SMDPad,CuDef*
%ADD13C,0.875000*%
G04 #@! TD*
G04 #@! TA.AperFunction,SMDPad,CuDef*
%ADD14R,1.550000X0.600000*%
G04 #@! TD*
G04 #@! TA.AperFunction,ViaPad*
%ADD15C,0.600000*%
G04 #@! TD*
G04 #@! TA.AperFunction,Conductor*
%ADD16C,0.600000*%
G04 #@! TD*
G04 #@! TA.AperFunction,Conductor*
%ADD17C,0.250000*%
G04 #@! TD*
G04 #@! TA.AperFunction,Conductor*
%ADD18C,0.200000*%
G04 #@! TD*
G04 #@! TA.AperFunction,Conductor*
%ADD19C,0.254000*%
G04 #@! TD*
G04 APERTURE END LIST*
D10*
G04 #@! TO.P,J2,1*
G04 #@! TO.N,GND*
X193800000Y-76200000D03*
D11*
G04 #@! TO.P,J2,2*
G04 #@! TO.N,/RXD*
X193800000Y-78740000D03*
G04 #@! TO.P,J2,3*
G04 #@! TO.N,/TXD*
X193800000Y-81280000D03*
G04 #@! TO.P,J2,4*
G04 #@! TO.N,VBUS*
X193800000Y-83820000D03*
G04 #@! TD*
D12*
G04 #@! TO.N,VBUS*
G04 #@! TO.C,D2*
G36*
X186952691Y-75826053D02*
X186973926Y-75829203D01*
X186994750Y-75834419D01*
X187014962Y-75841651D01*
X187034368Y-75850830D01*
X187052781Y-75861866D01*
X187070024Y-75874654D01*
X187085930Y-75889070D01*
X187100346Y-75904976D01*
X187113134Y-75922219D01*
X187124170Y-75940632D01*
X187133349Y-75960038D01*
X187140581Y-75980250D01*
X187145797Y-76001074D01*
X187148947Y-76022309D01*
X187150000Y-76043750D01*
X187150000Y-76556250D01*
X187148947Y-76577691D01*
X187145797Y-76598926D01*
X187140581Y-76619750D01*
X187133349Y-76639962D01*
X187124170Y-76659368D01*
X187113134Y-76677781D01*
X187100346Y-76695024D01*
X187085930Y-76710930D01*
X187070024Y-76725346D01*
X187052781Y-76738134D01*
X187034368Y-76749170D01*
X187014962Y-76758349D01*
X186994750Y-76765581D01*
X186973926Y-76770797D01*
X186952691Y-76773947D01*
X186931250Y-76775000D01*
X186493750Y-76775000D01*
X186472309Y-76773947D01*
X186451074Y-76770797D01*
X186430250Y-76765581D01*
X186410038Y-76758349D01*
X186390632Y-76749170D01*
X186372219Y-76738134D01*
X186354976Y-76725346D01*
X186339070Y-76710930D01*
X186324654Y-76695024D01*
X186311866Y-76677781D01*
X186300830Y-76659368D01*
X186291651Y-76639962D01*
X186284419Y-76619750D01*
X186279203Y-76598926D01*
X186276053Y-76577691D01*
X186275000Y-76556250D01*
X186275000Y-76043750D01*
X186276053Y-76022309D01*
X186279203Y-76001074D01*
X186284419Y-75980250D01*
X186291651Y-75960038D01*
X186300830Y-75940632D01*
X186311866Y-75922219D01*
X186324654Y-75904976D01*
X186339070Y-75889070D01*
X186354976Y-75874654D01*
X186372219Y-75861866D01*
X186390632Y-75850830D01*
X186410038Y-75841651D01*
X186430250Y-75834419D01*
X186451074Y-75829203D01*
X186472309Y-75826053D01*
X186493750Y-75825000D01*
X186931250Y-75825000D01*
X186952691Y-75826053D01*
X186952691Y-75826053D01*
G37*
D13*
G04 #@! TD*
G04 #@! TO.P,D2,2*
G04 #@! TO.N,VBUS*
X186712500Y-76300000D03*
D12*
G04 #@! TO.N,Net-(D2-Pad1)*
G04 #@! TO.C,D2*
G36*
X188527691Y-75826053D02*
X188548926Y-75829203D01*
X188569750Y-75834419D01*
X188589962Y-75841651D01*
X188609368Y-75850830D01*
X188627781Y-75861866D01*
X188645024Y-75874654D01*
X188660930Y-75889070D01*
X188675346Y-75904976D01*
X188688134Y-75922219D01*
X188699170Y-75940632D01*
X188708349Y-75960038D01*
X188715581Y-75980250D01*
X188720797Y-76001074D01*
X188723947Y-76022309D01*
X188725000Y-76043750D01*
X188725000Y-76556250D01*
X188723947Y-76577691D01*
X188720797Y-76598926D01*
X188715581Y-76619750D01*
X188708349Y-76639962D01*
X188699170Y-76659368D01*
X188688134Y-76677781D01*
X188675346Y-76695024D01*
X188660930Y-76710930D01*
X188645024Y-76725346D01*
X188627781Y-76738134D01*
X188609368Y-76749170D01*
X188589962Y-76758349D01*
X188569750Y-76765581D01*
X188548926Y-76770797D01*
X188527691Y-76773947D01*
X188506250Y-76775000D01*
X188068750Y-76775000D01*
X188047309Y-76773947D01*
X188026074Y-76770797D01*
X188005250Y-76765581D01*
X187985038Y-76758349D01*
X187965632Y-76749170D01*
X187947219Y-76738134D01*
X187929976Y-76725346D01*
X187914070Y-76710930D01*
X187899654Y-76695024D01*
X187886866Y-76677781D01*
X187875830Y-76659368D01*
X187866651Y-76639962D01*
X187859419Y-76619750D01*
X187854203Y-76598926D01*
X187851053Y-76577691D01*
X187850000Y-76556250D01*
X187850000Y-76043750D01*
X187851053Y-76022309D01*
X187854203Y-76001074D01*
X187859419Y-75980250D01*
X187866651Y-75960038D01*
X187875830Y-75940632D01*
X187886866Y-75922219D01*
X187899654Y-75904976D01*
X187914070Y-75889070D01*
X187929976Y-75874654D01*
X187947219Y-75861866D01*
X187965632Y-75850830D01*
X187985038Y-75841651D01*
X188005250Y-75834419D01*
X188026074Y-75829203D01*
X188047309Y-75826053D01*
X188068750Y-75825000D01*
X188506250Y-75825000D01*
X188527691Y-75826053D01*
X188527691Y-75826053D01*
G37*
D13*
G04 #@! TD*
G04 #@! TO.P,D2,1*
G04 #@! TO.N,Net-(D2-Pad1)*
X188287500Y-76300000D03*
D12*
G04 #@! TO.N,Net-(D1-Pad1)*
G04 #@! TO.C,D1*
G36*
X188527691Y-83226053D02*
X188548926Y-83229203D01*
X188569750Y-83234419D01*
X188589962Y-83241651D01*
X188609368Y-83250830D01*
X188627781Y-83261866D01*
X188645024Y-83274654D01*
X188660930Y-83289070D01*
X188675346Y-83304976D01*
X188688134Y-83322219D01*
X188699170Y-83340632D01*
X188708349Y-83360038D01*
X188715581Y-83380250D01*
X188720797Y-83401074D01*
X188723947Y-83422309D01*
X188725000Y-83443750D01*
X188725000Y-83956250D01*
X188723947Y-83977691D01*
X188720797Y-83998926D01*
X188715581Y-84019750D01*
X188708349Y-84039962D01*
X188699170Y-84059368D01*
X188688134Y-84077781D01*
X188675346Y-84095024D01*
X188660930Y-84110930D01*
X188645024Y-84125346D01*
X188627781Y-84138134D01*
X188609368Y-84149170D01*
X188589962Y-84158349D01*
X188569750Y-84165581D01*
X188548926Y-84170797D01*
X188527691Y-84173947D01*
X188506250Y-84175000D01*
X188068750Y-84175000D01*
X188047309Y-84173947D01*
X188026074Y-84170797D01*
X188005250Y-84165581D01*
X187985038Y-84158349D01*
X187965632Y-84149170D01*
X187947219Y-84138134D01*
X187929976Y-84125346D01*
X187914070Y-84110930D01*
X187899654Y-84095024D01*
X187886866Y-84077781D01*
X187875830Y-84059368D01*
X187866651Y-84039962D01*
X187859419Y-84019750D01*
X187854203Y-83998926D01*
X187851053Y-83977691D01*
X187850000Y-83956250D01*
X187850000Y-83443750D01*
X187851053Y-83422309D01*
X187854203Y-83401074D01*
X187859419Y-83380250D01*
X187866651Y-83360038D01*
X187875830Y-83340632D01*
X187886866Y-83322219D01*
X187899654Y-83304976D01*
X187914070Y-83289070D01*
X187929976Y-83274654D01*
X187947219Y-83261866D01*
X187965632Y-83250830D01*
X187985038Y-83241651D01*
X188005250Y-83234419D01*
X188026074Y-83229203D01*
X188047309Y-83226053D01*
X188068750Y-83225000D01*
X188506250Y-83225000D01*
X188527691Y-83226053D01*
X188527691Y-83226053D01*
G37*
D13*
G04 #@! TD*
G04 #@! TO.P,D1,1*
G04 #@! TO.N,Net-(D1-Pad1)*
X188287500Y-83700000D03*
D12*
G04 #@! TO.N,VBUS*
G04 #@! TO.C,D1*
G36*
X186952691Y-83226053D02*
X186973926Y-83229203D01*
X186994750Y-83234419D01*
X187014962Y-83241651D01*
X187034368Y-83250830D01*
X187052781Y-83261866D01*
X187070024Y-83274654D01*
X187085930Y-83289070D01*
X187100346Y-83304976D01*
X187113134Y-83322219D01*
X187124170Y-83340632D01*
X187133349Y-83360038D01*
X187140581Y-83380250D01*
X187145797Y-83401074D01*
X187148947Y-83422309D01*
X187150000Y-83443750D01*
X187150000Y-83956250D01*
X187148947Y-83977691D01*
X187145797Y-83998926D01*
X187140581Y-84019750D01*
X187133349Y-84039962D01*
X187124170Y-84059368D01*
X187113134Y-84077781D01*
X187100346Y-84095024D01*
X187085930Y-84110930D01*
X187070024Y-84125346D01*
X187052781Y-84138134D01*
X187034368Y-84149170D01*
X187014962Y-84158349D01*
X186994750Y-84165581D01*
X186973926Y-84170797D01*
X186952691Y-84173947D01*
X186931250Y-84175000D01*
X186493750Y-84175000D01*
X186472309Y-84173947D01*
X186451074Y-84170797D01*
X186430250Y-84165581D01*
X186410038Y-84158349D01*
X186390632Y-84149170D01*
X186372219Y-84138134D01*
X186354976Y-84125346D01*
X186339070Y-84110930D01*
X186324654Y-84095024D01*
X186311866Y-84077781D01*
X186300830Y-84059368D01*
X186291651Y-84039962D01*
X186284419Y-84019750D01*
X186279203Y-83998926D01*
X186276053Y-83977691D01*
X186275000Y-83956250D01*
X186275000Y-83443750D01*
X186276053Y-83422309D01*
X186279203Y-83401074D01*
X186284419Y-83380250D01*
X186291651Y-83360038D01*
X186300830Y-83340632D01*
X186311866Y-83322219D01*
X186324654Y-83304976D01*
X186339070Y-83289070D01*
X186354976Y-83274654D01*
X186372219Y-83261866D01*
X186390632Y-83250830D01*
X186410038Y-83241651D01*
X186430250Y-83234419D01*
X186451074Y-83229203D01*
X186472309Y-83226053D01*
X186493750Y-83225000D01*
X186931250Y-83225000D01*
X186952691Y-83226053D01*
X186952691Y-83226053D01*
G37*
D13*
G04 #@! TD*
G04 #@! TO.P,D1,2*
G04 #@! TO.N,VBUS*
X186712500Y-83700000D03*
D14*
G04 #@! TO.P,U1,1*
G04 #@! TO.N,/D+*
X186200000Y-78095000D03*
G04 #@! TO.P,U1,2*
G04 #@! TO.N,/D-*
X186200000Y-79365000D03*
G04 #@! TO.P,U1,3*
G04 #@! TO.N,GND*
X186200000Y-80635000D03*
G04 #@! TO.P,U1,4*
G04 #@! TO.N,/RTS*
X186200000Y-81905000D03*
G04 #@! TO.P,U1,5*
G04 #@! TO.N,VBUS*
X191600000Y-81905000D03*
G04 #@! TO.P,U1,6*
G04 #@! TO.N,/TXD*
X191600000Y-80635000D03*
G04 #@! TO.P,U1,7*
G04 #@! TO.N,/RXD*
X191600000Y-79365000D03*
G04 #@! TO.P,U1,8*
G04 #@! TO.N,/V3*
X191600000Y-78095000D03*
G04 #@! TD*
D12*
G04 #@! TO.N,/RXD*
G04 #@! TO.C,R2*
G36*
X191627691Y-75826053D02*
X191648926Y-75829203D01*
X191669750Y-75834419D01*
X191689962Y-75841651D01*
X191709368Y-75850830D01*
X191727781Y-75861866D01*
X191745024Y-75874654D01*
X191760930Y-75889070D01*
X191775346Y-75904976D01*
X191788134Y-75922219D01*
X191799170Y-75940632D01*
X191808349Y-75960038D01*
X191815581Y-75980250D01*
X191820797Y-76001074D01*
X191823947Y-76022309D01*
X191825000Y-76043750D01*
X191825000Y-76556250D01*
X191823947Y-76577691D01*
X191820797Y-76598926D01*
X191815581Y-76619750D01*
X191808349Y-76639962D01*
X191799170Y-76659368D01*
X191788134Y-76677781D01*
X191775346Y-76695024D01*
X191760930Y-76710930D01*
X191745024Y-76725346D01*
X191727781Y-76738134D01*
X191709368Y-76749170D01*
X191689962Y-76758349D01*
X191669750Y-76765581D01*
X191648926Y-76770797D01*
X191627691Y-76773947D01*
X191606250Y-76775000D01*
X191168750Y-76775000D01*
X191147309Y-76773947D01*
X191126074Y-76770797D01*
X191105250Y-76765581D01*
X191085038Y-76758349D01*
X191065632Y-76749170D01*
X191047219Y-76738134D01*
X191029976Y-76725346D01*
X191014070Y-76710930D01*
X190999654Y-76695024D01*
X190986866Y-76677781D01*
X190975830Y-76659368D01*
X190966651Y-76639962D01*
X190959419Y-76619750D01*
X190954203Y-76598926D01*
X190951053Y-76577691D01*
X190950000Y-76556250D01*
X190950000Y-76043750D01*
X190951053Y-76022309D01*
X190954203Y-76001074D01*
X190959419Y-75980250D01*
X190966651Y-75960038D01*
X190975830Y-75940632D01*
X190986866Y-75922219D01*
X190999654Y-75904976D01*
X191014070Y-75889070D01*
X191029976Y-75874654D01*
X191047219Y-75861866D01*
X191065632Y-75850830D01*
X191085038Y-75841651D01*
X191105250Y-75834419D01*
X191126074Y-75829203D01*
X191147309Y-75826053D01*
X191168750Y-75825000D01*
X191606250Y-75825000D01*
X191627691Y-75826053D01*
X191627691Y-75826053D01*
G37*
D13*
G04 #@! TD*
G04 #@! TO.P,R2,2*
G04 #@! TO.N,/RXD*
X191387500Y-76300000D03*
D12*
G04 #@! TO.N,Net-(D2-Pad1)*
G04 #@! TO.C,R2*
G36*
X190052691Y-75826053D02*
X190073926Y-75829203D01*
X190094750Y-75834419D01*
X190114962Y-75841651D01*
X190134368Y-75850830D01*
X190152781Y-75861866D01*
X190170024Y-75874654D01*
X190185930Y-75889070D01*
X190200346Y-75904976D01*
X190213134Y-75922219D01*
X190224170Y-75940632D01*
X190233349Y-75960038D01*
X190240581Y-75980250D01*
X190245797Y-76001074D01*
X190248947Y-76022309D01*
X190250000Y-76043750D01*
X190250000Y-76556250D01*
X190248947Y-76577691D01*
X190245797Y-76598926D01*
X190240581Y-76619750D01*
X190233349Y-76639962D01*
X190224170Y-76659368D01*
X190213134Y-76677781D01*
X190200346Y-76695024D01*
X190185930Y-76710930D01*
X190170024Y-76725346D01*
X190152781Y-76738134D01*
X190134368Y-76749170D01*
X190114962Y-76758349D01*
X190094750Y-76765581D01*
X190073926Y-76770797D01*
X190052691Y-76773947D01*
X190031250Y-76775000D01*
X189593750Y-76775000D01*
X189572309Y-76773947D01*
X189551074Y-76770797D01*
X189530250Y-76765581D01*
X189510038Y-76758349D01*
X189490632Y-76749170D01*
X189472219Y-76738134D01*
X189454976Y-76725346D01*
X189439070Y-76710930D01*
X189424654Y-76695024D01*
X189411866Y-76677781D01*
X189400830Y-76659368D01*
X189391651Y-76639962D01*
X189384419Y-76619750D01*
X189379203Y-76598926D01*
X189376053Y-76577691D01*
X189375000Y-76556250D01*
X189375000Y-76043750D01*
X189376053Y-76022309D01*
X189379203Y-76001074D01*
X189384419Y-75980250D01*
X189391651Y-75960038D01*
X189400830Y-75940632D01*
X189411866Y-75922219D01*
X189424654Y-75904976D01*
X189439070Y-75889070D01*
X189454976Y-75874654D01*
X189472219Y-75861866D01*
X189490632Y-75850830D01*
X189510038Y-75841651D01*
X189530250Y-75834419D01*
X189551074Y-75829203D01*
X189572309Y-75826053D01*
X189593750Y-75825000D01*
X190031250Y-75825000D01*
X190052691Y-75826053D01*
X190052691Y-75826053D01*
G37*
D13*
G04 #@! TD*
G04 #@! TO.P,R2,1*
G04 #@! TO.N,Net-(D2-Pad1)*
X189812500Y-76300000D03*
D12*
G04 #@! TO.N,Net-(D1-Pad1)*
G04 #@! TO.C,R1*
G36*
X190052691Y-83226053D02*
X190073926Y-83229203D01*
X190094750Y-83234419D01*
X190114962Y-83241651D01*
X190134368Y-83250830D01*
X190152781Y-83261866D01*
X190170024Y-83274654D01*
X190185930Y-83289070D01*
X190200346Y-83304976D01*
X190213134Y-83322219D01*
X190224170Y-83340632D01*
X190233349Y-83360038D01*
X190240581Y-83380250D01*
X190245797Y-83401074D01*
X190248947Y-83422309D01*
X190250000Y-83443750D01*
X190250000Y-83956250D01*
X190248947Y-83977691D01*
X190245797Y-83998926D01*
X190240581Y-84019750D01*
X190233349Y-84039962D01*
X190224170Y-84059368D01*
X190213134Y-84077781D01*
X190200346Y-84095024D01*
X190185930Y-84110930D01*
X190170024Y-84125346D01*
X190152781Y-84138134D01*
X190134368Y-84149170D01*
X190114962Y-84158349D01*
X190094750Y-84165581D01*
X190073926Y-84170797D01*
X190052691Y-84173947D01*
X190031250Y-84175000D01*
X189593750Y-84175000D01*
X189572309Y-84173947D01*
X189551074Y-84170797D01*
X189530250Y-84165581D01*
X189510038Y-84158349D01*
X189490632Y-84149170D01*
X189472219Y-84138134D01*
X189454976Y-84125346D01*
X189439070Y-84110930D01*
X189424654Y-84095024D01*
X189411866Y-84077781D01*
X189400830Y-84059368D01*
X189391651Y-84039962D01*
X189384419Y-84019750D01*
X189379203Y-83998926D01*
X189376053Y-83977691D01*
X189375000Y-83956250D01*
X189375000Y-83443750D01*
X189376053Y-83422309D01*
X189379203Y-83401074D01*
X189384419Y-83380250D01*
X189391651Y-83360038D01*
X189400830Y-83340632D01*
X189411866Y-83322219D01*
X189424654Y-83304976D01*
X189439070Y-83289070D01*
X189454976Y-83274654D01*
X189472219Y-83261866D01*
X189490632Y-83250830D01*
X189510038Y-83241651D01*
X189530250Y-83234419D01*
X189551074Y-83229203D01*
X189572309Y-83226053D01*
X189593750Y-83225000D01*
X190031250Y-83225000D01*
X190052691Y-83226053D01*
X190052691Y-83226053D01*
G37*
D13*
G04 #@! TD*
G04 #@! TO.P,R1,1*
G04 #@! TO.N,Net-(D1-Pad1)*
X189812500Y-83700000D03*
D12*
G04 #@! TO.N,/TXD*
G04 #@! TO.C,R1*
G36*
X191627691Y-83226053D02*
X191648926Y-83229203D01*
X191669750Y-83234419D01*
X191689962Y-83241651D01*
X191709368Y-83250830D01*
X191727781Y-83261866D01*
X191745024Y-83274654D01*
X191760930Y-83289070D01*
X191775346Y-83304976D01*
X191788134Y-83322219D01*
X191799170Y-83340632D01*
X191808349Y-83360038D01*
X191815581Y-83380250D01*
X191820797Y-83401074D01*
X191823947Y-83422309D01*
X191825000Y-83443750D01*
X191825000Y-83956250D01*
X191823947Y-83977691D01*
X191820797Y-83998926D01*
X191815581Y-84019750D01*
X191808349Y-84039962D01*
X191799170Y-84059368D01*
X191788134Y-84077781D01*
X191775346Y-84095024D01*
X191760930Y-84110930D01*
X191745024Y-84125346D01*
X191727781Y-84138134D01*
X191709368Y-84149170D01*
X191689962Y-84158349D01*
X191669750Y-84165581D01*
X191648926Y-84170797D01*
X191627691Y-84173947D01*
X191606250Y-84175000D01*
X191168750Y-84175000D01*
X191147309Y-84173947D01*
X191126074Y-84170797D01*
X191105250Y-84165581D01*
X191085038Y-84158349D01*
X191065632Y-84149170D01*
X191047219Y-84138134D01*
X191029976Y-84125346D01*
X191014070Y-84110930D01*
X190999654Y-84095024D01*
X190986866Y-84077781D01*
X190975830Y-84059368D01*
X190966651Y-84039962D01*
X190959419Y-84019750D01*
X190954203Y-83998926D01*
X190951053Y-83977691D01*
X190950000Y-83956250D01*
X190950000Y-83443750D01*
X190951053Y-83422309D01*
X190954203Y-83401074D01*
X190959419Y-83380250D01*
X190966651Y-83360038D01*
X190975830Y-83340632D01*
X190986866Y-83322219D01*
X190999654Y-83304976D01*
X191014070Y-83289070D01*
X191029976Y-83274654D01*
X191047219Y-83261866D01*
X191065632Y-83250830D01*
X191085038Y-83241651D01*
X191105250Y-83234419D01*
X191126074Y-83229203D01*
X191147309Y-83226053D01*
X191168750Y-83225000D01*
X191606250Y-83225000D01*
X191627691Y-83226053D01*
X191627691Y-83226053D01*
G37*
D13*
G04 #@! TD*
G04 #@! TO.P,R1,2*
G04 #@! TO.N,/TXD*
X191387500Y-83700000D03*
D15*
G04 #@! TO.N,/D+*
X188074990Y-79845779D03*
G04 #@! TO.N,/D-*
X188074990Y-80778907D03*
G04 #@! TO.N,GND*
X187886325Y-81556355D03*
G04 #@! TO.N,/V3*
X191400000Y-77300000D03*
G04 #@! TD*
D16*
G04 #@! TO.N,VBUS*
X191885000Y-81905000D02*
X193800000Y-83820000D01*
X191600000Y-81905000D02*
X191885000Y-81905000D01*
D17*
X191842929Y-84574990D02*
X192597919Y-83820000D01*
X186999990Y-84574990D02*
X191842929Y-84574990D01*
X186700000Y-84275000D02*
X186999990Y-84574990D01*
X188700000Y-78862500D02*
X188700000Y-81700000D01*
X186700000Y-83700000D02*
X186700000Y-84275000D01*
X186712500Y-76300000D02*
X186712500Y-76875000D01*
X192597919Y-83820000D02*
X193800000Y-83820000D01*
X188700000Y-81700000D02*
X186700000Y-83700000D01*
X186712500Y-76875000D02*
X188700000Y-78862500D01*
D18*
G04 #@! TO.N,/D+*
X186675000Y-78095000D02*
X188074990Y-79494990D01*
X186200000Y-78095000D02*
X186675000Y-78095000D01*
X188074990Y-79494990D02*
X188074990Y-79845779D01*
G04 #@! TO.N,/D-*
X187774991Y-80478908D02*
X188074990Y-80778907D01*
X186675000Y-79365000D02*
X187175000Y-79865000D01*
X187175000Y-79865000D02*
X187175000Y-79878917D01*
X187175000Y-79878917D02*
X187774991Y-80478908D01*
X186200000Y-79365000D02*
X186675000Y-79365000D01*
G04 #@! TO.N,/TXD*
X193155000Y-80635000D02*
X193800000Y-81280000D01*
X191600000Y-80635000D02*
X193155000Y-80635000D01*
X190925888Y-83338388D02*
X191387500Y-83800000D01*
X190400000Y-82812500D02*
X190925888Y-83338388D01*
X191600000Y-80635000D02*
X191125000Y-80635000D01*
X190400000Y-81360000D02*
X190400000Y-82812500D01*
X191125000Y-80635000D02*
X190400000Y-81360000D01*
G04 #@! TO.N,/RXD*
X193175000Y-79365000D02*
X193800000Y-78740000D01*
X191600000Y-79365000D02*
X193175000Y-79365000D01*
X190925888Y-76561612D02*
X191387500Y-76100000D01*
X190524999Y-78764999D02*
X190524999Y-76962501D01*
X190524999Y-76962501D02*
X190925888Y-76561612D01*
X191125000Y-79365000D02*
X190524999Y-78764999D01*
X191600000Y-79365000D02*
X191125000Y-79365000D01*
G04 #@! TO.N,/V3*
X191600000Y-78095000D02*
X191600000Y-77500000D01*
X191600000Y-77500000D02*
X191400000Y-77300000D01*
G04 #@! TO.N,Net-(D1-Pad1)*
X189812500Y-83700000D02*
X188275000Y-83700000D01*
G04 #@! TO.N,Net-(D2-Pad1)*
X188287500Y-76300000D02*
X189812500Y-76300000D01*
G04 #@! TD*
D19*
G04 #@! TO.N,GND*
G36*
X186773361Y-80143597D02*
X186828219Y-80225698D01*
X186868379Y-80252532D01*
X187393990Y-80778143D01*
X187393990Y-80914366D01*
X187497666Y-81164663D01*
X187689234Y-81356231D01*
X187939531Y-81459907D01*
X188194001Y-81459907D01*
X188194001Y-81490407D01*
X187334675Y-82349734D01*
X187363464Y-82205000D01*
X187363464Y-81605000D01*
X187333894Y-81456341D01*
X187249686Y-81330314D01*
X187123659Y-81246106D01*
X186975000Y-81216536D01*
X185481000Y-81216536D01*
X185481000Y-80053464D01*
X186683227Y-80053464D01*
X186773361Y-80143597D01*
X186773361Y-80143597D01*
G37*
X186773361Y-80143597D02*
X186828219Y-80225698D01*
X186868379Y-80252532D01*
X187393990Y-80778143D01*
X187393990Y-80914366D01*
X187497666Y-81164663D01*
X187689234Y-81356231D01*
X187939531Y-81459907D01*
X188194001Y-81459907D01*
X188194001Y-81490407D01*
X187334675Y-82349734D01*
X187363464Y-82205000D01*
X187363464Y-81605000D01*
X187333894Y-81456341D01*
X187249686Y-81330314D01*
X187123659Y-81246106D01*
X186975000Y-81216536D01*
X185481000Y-81216536D01*
X185481000Y-80053464D01*
X186683227Y-80053464D01*
X186773361Y-80143597D01*
G36*
X194519000Y-77739910D02*
X194280312Y-77580424D01*
X193921239Y-77509000D01*
X193678761Y-77509000D01*
X193319688Y-77580424D01*
X192912499Y-77852499D01*
X192763464Y-78075546D01*
X192763464Y-77795000D01*
X192733894Y-77646341D01*
X192649686Y-77520314D01*
X192523659Y-77436106D01*
X192375000Y-77406536D01*
X192081000Y-77406536D01*
X192081000Y-77164541D01*
X192013114Y-77000650D01*
X192035615Y-76985615D01*
X192167243Y-76788621D01*
X192213464Y-76556250D01*
X192213464Y-76043750D01*
X192167243Y-75811379D01*
X192035615Y-75614385D01*
X191838621Y-75482757D01*
X191829788Y-75481000D01*
X194519000Y-75481000D01*
X194519000Y-77739910D01*
X194519000Y-77739910D01*
G37*
X194519000Y-77739910D02*
X194280312Y-77580424D01*
X193921239Y-77509000D01*
X193678761Y-77509000D01*
X193319688Y-77580424D01*
X192912499Y-77852499D01*
X192763464Y-78075546D01*
X192763464Y-77795000D01*
X192733894Y-77646341D01*
X192649686Y-77520314D01*
X192523659Y-77436106D01*
X192375000Y-77406536D01*
X192081000Y-77406536D01*
X192081000Y-77164541D01*
X192013114Y-77000650D01*
X192035615Y-76985615D01*
X192167243Y-76788621D01*
X192213464Y-76556250D01*
X192213464Y-76043750D01*
X192167243Y-75811379D01*
X192035615Y-75614385D01*
X191838621Y-75482757D01*
X191829788Y-75481000D01*
X194519000Y-75481000D01*
X194519000Y-77739910D01*
G04 #@! TD*
M02*
