G04 #@! TF.GenerationSoftware,KiCad,Pcbnew,5.0.0*
G04 #@! TF.CreationDate,2018-10-29T21:49:34+01:00*
G04 #@! TF.ProjectId,CH330,43483333302E6B696361645F70636200,rev?*
G04 #@! TF.SameCoordinates,Original*
G04 #@! TF.FileFunction,Legend,Top*
G04 #@! TF.FilePolarity,Positive*
%FSLAX46Y46*%
G04 Gerber Fmt 4.6, Leading zero omitted, Abs format (unit mm)*
G04 Created by KiCad (PCBNEW 5.0.0) date Mon Oct 29 21:49:34 2018*
%MOMM*%
%LPD*%
G01*
G04 APERTURE LIST*
%ADD10C,0.200000*%
%ADD11C,0.120000*%
%ADD12C,0.150000*%
G04 APERTURE END LIST*
D10*
X187841421Y-78100000D02*
G75*
G03X187841421Y-78100000I-141421J0D01*
G01*
D11*
X185826190Y-76383333D02*
X185588095Y-76550000D01*
X185826190Y-76669047D02*
X185326190Y-76669047D01*
X185326190Y-76478571D01*
X185350000Y-76430952D01*
X185373809Y-76407142D01*
X185421428Y-76383333D01*
X185492857Y-76383333D01*
X185540476Y-76407142D01*
X185564285Y-76430952D01*
X185588095Y-76478571D01*
X185588095Y-76669047D01*
X185326190Y-76216666D02*
X185826190Y-75883333D01*
X185326190Y-75883333D02*
X185826190Y-76216666D01*
X185326190Y-84080952D02*
X185326190Y-83795238D01*
X185826190Y-83938095D02*
X185326190Y-83938095D01*
X185326190Y-83676190D02*
X185826190Y-83342857D01*
X185326190Y-83342857D02*
X185826190Y-83676190D01*
G04 #@! TO.C,D2*
X188985000Y-75565000D02*
X186700000Y-75565000D01*
X188985000Y-77035000D02*
X188985000Y-75565000D01*
X186700000Y-77035000D02*
X188985000Y-77035000D01*
G04 #@! TO.C,D1*
X186700000Y-84435000D02*
X188985000Y-84435000D01*
X188985000Y-84435000D02*
X188985000Y-82965000D01*
X188985000Y-82965000D02*
X186700000Y-82965000D01*
D12*
G04 #@! TO.C,U1*
X186825000Y-77425000D02*
X186825000Y-77475000D01*
X190975000Y-77425000D02*
X190975000Y-77570000D01*
X190975000Y-82575000D02*
X190975000Y-82430000D01*
X186825000Y-82575000D02*
X186825000Y-82430000D01*
X186825000Y-77425000D02*
X190975000Y-77425000D01*
X186825000Y-82575000D02*
X190975000Y-82575000D01*
X186825000Y-77475000D02*
X185425000Y-77475000D01*
D11*
G04 #@! TO.C,R2*
X190437221Y-76810000D02*
X190762779Y-76810000D01*
X190437221Y-75790000D02*
X190762779Y-75790000D01*
G04 #@! TO.C,R1*
X190437221Y-83190000D02*
X190762779Y-83190000D01*
X190437221Y-84210000D02*
X190762779Y-84210000D01*
G04 #@! TD*
M02*
