G04 #@! TF.GenerationSoftware,KiCad,Pcbnew,5.0.0*
G04 #@! TF.CreationDate,2018-10-29T21:49:34+01:00*
G04 #@! TF.ProjectId,CH330,43483333302E6B696361645F70636200,rev?*
G04 #@! TF.SameCoordinates,Original*
G04 #@! TF.FileFunction,Soldermask,Top*
G04 #@! TF.FilePolarity,Negative*
%FSLAX46Y46*%
G04 Gerber Fmt 4.6, Leading zero omitted, Abs format (unit mm)*
G04 Created by KiCad (PCBNEW 5.0.0) date Mon Oct 29 21:49:34 2018*
%MOMM*%
%LPD*%
G01*
G04 APERTURE LIST*
%ADD10R,2.100000X2.100000*%
%ADD11O,2.100000X2.100000*%
%ADD12C,0.100000*%
%ADD13C,1.275000*%
%ADD14R,1.950000X1.000000*%
G04 APERTURE END LIST*
D10*
G04 #@! TO.C,J2*
X193800000Y-76200000D03*
D11*
X193800000Y-78740000D03*
X193800000Y-81280000D03*
X193800000Y-83820000D03*
G04 #@! TD*
D12*
G04 #@! TO.C,D2*
G36*
X187062493Y-75626535D02*
X187093435Y-75631125D01*
X187123778Y-75638725D01*
X187153230Y-75649263D01*
X187181508Y-75662638D01*
X187208338Y-75678719D01*
X187233463Y-75697353D01*
X187256640Y-75718360D01*
X187277647Y-75741537D01*
X187296281Y-75766662D01*
X187312362Y-75793492D01*
X187325737Y-75821770D01*
X187336275Y-75851222D01*
X187343875Y-75881565D01*
X187348465Y-75912507D01*
X187350000Y-75943750D01*
X187350000Y-76656250D01*
X187348465Y-76687493D01*
X187343875Y-76718435D01*
X187336275Y-76748778D01*
X187325737Y-76778230D01*
X187312362Y-76806508D01*
X187296281Y-76833338D01*
X187277647Y-76858463D01*
X187256640Y-76881640D01*
X187233463Y-76902647D01*
X187208338Y-76921281D01*
X187181508Y-76937362D01*
X187153230Y-76950737D01*
X187123778Y-76961275D01*
X187093435Y-76968875D01*
X187062493Y-76973465D01*
X187031250Y-76975000D01*
X186393750Y-76975000D01*
X186362507Y-76973465D01*
X186331565Y-76968875D01*
X186301222Y-76961275D01*
X186271770Y-76950737D01*
X186243492Y-76937362D01*
X186216662Y-76921281D01*
X186191537Y-76902647D01*
X186168360Y-76881640D01*
X186147353Y-76858463D01*
X186128719Y-76833338D01*
X186112638Y-76806508D01*
X186099263Y-76778230D01*
X186088725Y-76748778D01*
X186081125Y-76718435D01*
X186076535Y-76687493D01*
X186075000Y-76656250D01*
X186075000Y-75943750D01*
X186076535Y-75912507D01*
X186081125Y-75881565D01*
X186088725Y-75851222D01*
X186099263Y-75821770D01*
X186112638Y-75793492D01*
X186128719Y-75766662D01*
X186147353Y-75741537D01*
X186168360Y-75718360D01*
X186191537Y-75697353D01*
X186216662Y-75678719D01*
X186243492Y-75662638D01*
X186271770Y-75649263D01*
X186301222Y-75638725D01*
X186331565Y-75631125D01*
X186362507Y-75626535D01*
X186393750Y-75625000D01*
X187031250Y-75625000D01*
X187062493Y-75626535D01*
X187062493Y-75626535D01*
G37*
D13*
X186712500Y-76300000D03*
D12*
G36*
X188637493Y-75626535D02*
X188668435Y-75631125D01*
X188698778Y-75638725D01*
X188728230Y-75649263D01*
X188756508Y-75662638D01*
X188783338Y-75678719D01*
X188808463Y-75697353D01*
X188831640Y-75718360D01*
X188852647Y-75741537D01*
X188871281Y-75766662D01*
X188887362Y-75793492D01*
X188900737Y-75821770D01*
X188911275Y-75851222D01*
X188918875Y-75881565D01*
X188923465Y-75912507D01*
X188925000Y-75943750D01*
X188925000Y-76656250D01*
X188923465Y-76687493D01*
X188918875Y-76718435D01*
X188911275Y-76748778D01*
X188900737Y-76778230D01*
X188887362Y-76806508D01*
X188871281Y-76833338D01*
X188852647Y-76858463D01*
X188831640Y-76881640D01*
X188808463Y-76902647D01*
X188783338Y-76921281D01*
X188756508Y-76937362D01*
X188728230Y-76950737D01*
X188698778Y-76961275D01*
X188668435Y-76968875D01*
X188637493Y-76973465D01*
X188606250Y-76975000D01*
X187968750Y-76975000D01*
X187937507Y-76973465D01*
X187906565Y-76968875D01*
X187876222Y-76961275D01*
X187846770Y-76950737D01*
X187818492Y-76937362D01*
X187791662Y-76921281D01*
X187766537Y-76902647D01*
X187743360Y-76881640D01*
X187722353Y-76858463D01*
X187703719Y-76833338D01*
X187687638Y-76806508D01*
X187674263Y-76778230D01*
X187663725Y-76748778D01*
X187656125Y-76718435D01*
X187651535Y-76687493D01*
X187650000Y-76656250D01*
X187650000Y-75943750D01*
X187651535Y-75912507D01*
X187656125Y-75881565D01*
X187663725Y-75851222D01*
X187674263Y-75821770D01*
X187687638Y-75793492D01*
X187703719Y-75766662D01*
X187722353Y-75741537D01*
X187743360Y-75718360D01*
X187766537Y-75697353D01*
X187791662Y-75678719D01*
X187818492Y-75662638D01*
X187846770Y-75649263D01*
X187876222Y-75638725D01*
X187906565Y-75631125D01*
X187937507Y-75626535D01*
X187968750Y-75625000D01*
X188606250Y-75625000D01*
X188637493Y-75626535D01*
X188637493Y-75626535D01*
G37*
D13*
X188287500Y-76300000D03*
G04 #@! TD*
D12*
G04 #@! TO.C,D1*
G36*
X188637493Y-83026535D02*
X188668435Y-83031125D01*
X188698778Y-83038725D01*
X188728230Y-83049263D01*
X188756508Y-83062638D01*
X188783338Y-83078719D01*
X188808463Y-83097353D01*
X188831640Y-83118360D01*
X188852647Y-83141537D01*
X188871281Y-83166662D01*
X188887362Y-83193492D01*
X188900737Y-83221770D01*
X188911275Y-83251222D01*
X188918875Y-83281565D01*
X188923465Y-83312507D01*
X188925000Y-83343750D01*
X188925000Y-84056250D01*
X188923465Y-84087493D01*
X188918875Y-84118435D01*
X188911275Y-84148778D01*
X188900737Y-84178230D01*
X188887362Y-84206508D01*
X188871281Y-84233338D01*
X188852647Y-84258463D01*
X188831640Y-84281640D01*
X188808463Y-84302647D01*
X188783338Y-84321281D01*
X188756508Y-84337362D01*
X188728230Y-84350737D01*
X188698778Y-84361275D01*
X188668435Y-84368875D01*
X188637493Y-84373465D01*
X188606250Y-84375000D01*
X187968750Y-84375000D01*
X187937507Y-84373465D01*
X187906565Y-84368875D01*
X187876222Y-84361275D01*
X187846770Y-84350737D01*
X187818492Y-84337362D01*
X187791662Y-84321281D01*
X187766537Y-84302647D01*
X187743360Y-84281640D01*
X187722353Y-84258463D01*
X187703719Y-84233338D01*
X187687638Y-84206508D01*
X187674263Y-84178230D01*
X187663725Y-84148778D01*
X187656125Y-84118435D01*
X187651535Y-84087493D01*
X187650000Y-84056250D01*
X187650000Y-83343750D01*
X187651535Y-83312507D01*
X187656125Y-83281565D01*
X187663725Y-83251222D01*
X187674263Y-83221770D01*
X187687638Y-83193492D01*
X187703719Y-83166662D01*
X187722353Y-83141537D01*
X187743360Y-83118360D01*
X187766537Y-83097353D01*
X187791662Y-83078719D01*
X187818492Y-83062638D01*
X187846770Y-83049263D01*
X187876222Y-83038725D01*
X187906565Y-83031125D01*
X187937507Y-83026535D01*
X187968750Y-83025000D01*
X188606250Y-83025000D01*
X188637493Y-83026535D01*
X188637493Y-83026535D01*
G37*
D13*
X188287500Y-83700000D03*
D12*
G36*
X187062493Y-83026535D02*
X187093435Y-83031125D01*
X187123778Y-83038725D01*
X187153230Y-83049263D01*
X187181508Y-83062638D01*
X187208338Y-83078719D01*
X187233463Y-83097353D01*
X187256640Y-83118360D01*
X187277647Y-83141537D01*
X187296281Y-83166662D01*
X187312362Y-83193492D01*
X187325737Y-83221770D01*
X187336275Y-83251222D01*
X187343875Y-83281565D01*
X187348465Y-83312507D01*
X187350000Y-83343750D01*
X187350000Y-84056250D01*
X187348465Y-84087493D01*
X187343875Y-84118435D01*
X187336275Y-84148778D01*
X187325737Y-84178230D01*
X187312362Y-84206508D01*
X187296281Y-84233338D01*
X187277647Y-84258463D01*
X187256640Y-84281640D01*
X187233463Y-84302647D01*
X187208338Y-84321281D01*
X187181508Y-84337362D01*
X187153230Y-84350737D01*
X187123778Y-84361275D01*
X187093435Y-84368875D01*
X187062493Y-84373465D01*
X187031250Y-84375000D01*
X186393750Y-84375000D01*
X186362507Y-84373465D01*
X186331565Y-84368875D01*
X186301222Y-84361275D01*
X186271770Y-84350737D01*
X186243492Y-84337362D01*
X186216662Y-84321281D01*
X186191537Y-84302647D01*
X186168360Y-84281640D01*
X186147353Y-84258463D01*
X186128719Y-84233338D01*
X186112638Y-84206508D01*
X186099263Y-84178230D01*
X186088725Y-84148778D01*
X186081125Y-84118435D01*
X186076535Y-84087493D01*
X186075000Y-84056250D01*
X186075000Y-83343750D01*
X186076535Y-83312507D01*
X186081125Y-83281565D01*
X186088725Y-83251222D01*
X186099263Y-83221770D01*
X186112638Y-83193492D01*
X186128719Y-83166662D01*
X186147353Y-83141537D01*
X186168360Y-83118360D01*
X186191537Y-83097353D01*
X186216662Y-83078719D01*
X186243492Y-83062638D01*
X186271770Y-83049263D01*
X186301222Y-83038725D01*
X186331565Y-83031125D01*
X186362507Y-83026535D01*
X186393750Y-83025000D01*
X187031250Y-83025000D01*
X187062493Y-83026535D01*
X187062493Y-83026535D01*
G37*
D13*
X186712500Y-83700000D03*
G04 #@! TD*
D14*
G04 #@! TO.C,U1*
X186200000Y-78095000D03*
X186200000Y-79365000D03*
X186200000Y-80635000D03*
X186200000Y-81905000D03*
X191600000Y-81905000D03*
X191600000Y-80635000D03*
X191600000Y-79365000D03*
X191600000Y-78095000D03*
G04 #@! TD*
D12*
G04 #@! TO.C,R2*
G36*
X191737493Y-75626535D02*
X191768435Y-75631125D01*
X191798778Y-75638725D01*
X191828230Y-75649263D01*
X191856508Y-75662638D01*
X191883338Y-75678719D01*
X191908463Y-75697353D01*
X191931640Y-75718360D01*
X191952647Y-75741537D01*
X191971281Y-75766662D01*
X191987362Y-75793492D01*
X192000737Y-75821770D01*
X192011275Y-75851222D01*
X192018875Y-75881565D01*
X192023465Y-75912507D01*
X192025000Y-75943750D01*
X192025000Y-76656250D01*
X192023465Y-76687493D01*
X192018875Y-76718435D01*
X192011275Y-76748778D01*
X192000737Y-76778230D01*
X191987362Y-76806508D01*
X191971281Y-76833338D01*
X191952647Y-76858463D01*
X191931640Y-76881640D01*
X191908463Y-76902647D01*
X191883338Y-76921281D01*
X191856508Y-76937362D01*
X191828230Y-76950737D01*
X191798778Y-76961275D01*
X191768435Y-76968875D01*
X191737493Y-76973465D01*
X191706250Y-76975000D01*
X191068750Y-76975000D01*
X191037507Y-76973465D01*
X191006565Y-76968875D01*
X190976222Y-76961275D01*
X190946770Y-76950737D01*
X190918492Y-76937362D01*
X190891662Y-76921281D01*
X190866537Y-76902647D01*
X190843360Y-76881640D01*
X190822353Y-76858463D01*
X190803719Y-76833338D01*
X190787638Y-76806508D01*
X190774263Y-76778230D01*
X190763725Y-76748778D01*
X190756125Y-76718435D01*
X190751535Y-76687493D01*
X190750000Y-76656250D01*
X190750000Y-75943750D01*
X190751535Y-75912507D01*
X190756125Y-75881565D01*
X190763725Y-75851222D01*
X190774263Y-75821770D01*
X190787638Y-75793492D01*
X190803719Y-75766662D01*
X190822353Y-75741537D01*
X190843360Y-75718360D01*
X190866537Y-75697353D01*
X190891662Y-75678719D01*
X190918492Y-75662638D01*
X190946770Y-75649263D01*
X190976222Y-75638725D01*
X191006565Y-75631125D01*
X191037507Y-75626535D01*
X191068750Y-75625000D01*
X191706250Y-75625000D01*
X191737493Y-75626535D01*
X191737493Y-75626535D01*
G37*
D13*
X191387500Y-76300000D03*
D12*
G36*
X190162493Y-75626535D02*
X190193435Y-75631125D01*
X190223778Y-75638725D01*
X190253230Y-75649263D01*
X190281508Y-75662638D01*
X190308338Y-75678719D01*
X190333463Y-75697353D01*
X190356640Y-75718360D01*
X190377647Y-75741537D01*
X190396281Y-75766662D01*
X190412362Y-75793492D01*
X190425737Y-75821770D01*
X190436275Y-75851222D01*
X190443875Y-75881565D01*
X190448465Y-75912507D01*
X190450000Y-75943750D01*
X190450000Y-76656250D01*
X190448465Y-76687493D01*
X190443875Y-76718435D01*
X190436275Y-76748778D01*
X190425737Y-76778230D01*
X190412362Y-76806508D01*
X190396281Y-76833338D01*
X190377647Y-76858463D01*
X190356640Y-76881640D01*
X190333463Y-76902647D01*
X190308338Y-76921281D01*
X190281508Y-76937362D01*
X190253230Y-76950737D01*
X190223778Y-76961275D01*
X190193435Y-76968875D01*
X190162493Y-76973465D01*
X190131250Y-76975000D01*
X189493750Y-76975000D01*
X189462507Y-76973465D01*
X189431565Y-76968875D01*
X189401222Y-76961275D01*
X189371770Y-76950737D01*
X189343492Y-76937362D01*
X189316662Y-76921281D01*
X189291537Y-76902647D01*
X189268360Y-76881640D01*
X189247353Y-76858463D01*
X189228719Y-76833338D01*
X189212638Y-76806508D01*
X189199263Y-76778230D01*
X189188725Y-76748778D01*
X189181125Y-76718435D01*
X189176535Y-76687493D01*
X189175000Y-76656250D01*
X189175000Y-75943750D01*
X189176535Y-75912507D01*
X189181125Y-75881565D01*
X189188725Y-75851222D01*
X189199263Y-75821770D01*
X189212638Y-75793492D01*
X189228719Y-75766662D01*
X189247353Y-75741537D01*
X189268360Y-75718360D01*
X189291537Y-75697353D01*
X189316662Y-75678719D01*
X189343492Y-75662638D01*
X189371770Y-75649263D01*
X189401222Y-75638725D01*
X189431565Y-75631125D01*
X189462507Y-75626535D01*
X189493750Y-75625000D01*
X190131250Y-75625000D01*
X190162493Y-75626535D01*
X190162493Y-75626535D01*
G37*
D13*
X189812500Y-76300000D03*
G04 #@! TD*
D12*
G04 #@! TO.C,R1*
G36*
X190162493Y-83026535D02*
X190193435Y-83031125D01*
X190223778Y-83038725D01*
X190253230Y-83049263D01*
X190281508Y-83062638D01*
X190308338Y-83078719D01*
X190333463Y-83097353D01*
X190356640Y-83118360D01*
X190377647Y-83141537D01*
X190396281Y-83166662D01*
X190412362Y-83193492D01*
X190425737Y-83221770D01*
X190436275Y-83251222D01*
X190443875Y-83281565D01*
X190448465Y-83312507D01*
X190450000Y-83343750D01*
X190450000Y-84056250D01*
X190448465Y-84087493D01*
X190443875Y-84118435D01*
X190436275Y-84148778D01*
X190425737Y-84178230D01*
X190412362Y-84206508D01*
X190396281Y-84233338D01*
X190377647Y-84258463D01*
X190356640Y-84281640D01*
X190333463Y-84302647D01*
X190308338Y-84321281D01*
X190281508Y-84337362D01*
X190253230Y-84350737D01*
X190223778Y-84361275D01*
X190193435Y-84368875D01*
X190162493Y-84373465D01*
X190131250Y-84375000D01*
X189493750Y-84375000D01*
X189462507Y-84373465D01*
X189431565Y-84368875D01*
X189401222Y-84361275D01*
X189371770Y-84350737D01*
X189343492Y-84337362D01*
X189316662Y-84321281D01*
X189291537Y-84302647D01*
X189268360Y-84281640D01*
X189247353Y-84258463D01*
X189228719Y-84233338D01*
X189212638Y-84206508D01*
X189199263Y-84178230D01*
X189188725Y-84148778D01*
X189181125Y-84118435D01*
X189176535Y-84087493D01*
X189175000Y-84056250D01*
X189175000Y-83343750D01*
X189176535Y-83312507D01*
X189181125Y-83281565D01*
X189188725Y-83251222D01*
X189199263Y-83221770D01*
X189212638Y-83193492D01*
X189228719Y-83166662D01*
X189247353Y-83141537D01*
X189268360Y-83118360D01*
X189291537Y-83097353D01*
X189316662Y-83078719D01*
X189343492Y-83062638D01*
X189371770Y-83049263D01*
X189401222Y-83038725D01*
X189431565Y-83031125D01*
X189462507Y-83026535D01*
X189493750Y-83025000D01*
X190131250Y-83025000D01*
X190162493Y-83026535D01*
X190162493Y-83026535D01*
G37*
D13*
X189812500Y-83700000D03*
D12*
G36*
X191737493Y-83026535D02*
X191768435Y-83031125D01*
X191798778Y-83038725D01*
X191828230Y-83049263D01*
X191856508Y-83062638D01*
X191883338Y-83078719D01*
X191908463Y-83097353D01*
X191931640Y-83118360D01*
X191952647Y-83141537D01*
X191971281Y-83166662D01*
X191987362Y-83193492D01*
X192000737Y-83221770D01*
X192011275Y-83251222D01*
X192018875Y-83281565D01*
X192023465Y-83312507D01*
X192025000Y-83343750D01*
X192025000Y-84056250D01*
X192023465Y-84087493D01*
X192018875Y-84118435D01*
X192011275Y-84148778D01*
X192000737Y-84178230D01*
X191987362Y-84206508D01*
X191971281Y-84233338D01*
X191952647Y-84258463D01*
X191931640Y-84281640D01*
X191908463Y-84302647D01*
X191883338Y-84321281D01*
X191856508Y-84337362D01*
X191828230Y-84350737D01*
X191798778Y-84361275D01*
X191768435Y-84368875D01*
X191737493Y-84373465D01*
X191706250Y-84375000D01*
X191068750Y-84375000D01*
X191037507Y-84373465D01*
X191006565Y-84368875D01*
X190976222Y-84361275D01*
X190946770Y-84350737D01*
X190918492Y-84337362D01*
X190891662Y-84321281D01*
X190866537Y-84302647D01*
X190843360Y-84281640D01*
X190822353Y-84258463D01*
X190803719Y-84233338D01*
X190787638Y-84206508D01*
X190774263Y-84178230D01*
X190763725Y-84148778D01*
X190756125Y-84118435D01*
X190751535Y-84087493D01*
X190750000Y-84056250D01*
X190750000Y-83343750D01*
X190751535Y-83312507D01*
X190756125Y-83281565D01*
X190763725Y-83251222D01*
X190774263Y-83221770D01*
X190787638Y-83193492D01*
X190803719Y-83166662D01*
X190822353Y-83141537D01*
X190843360Y-83118360D01*
X190866537Y-83097353D01*
X190891662Y-83078719D01*
X190918492Y-83062638D01*
X190946770Y-83049263D01*
X190976222Y-83038725D01*
X191006565Y-83031125D01*
X191037507Y-83026535D01*
X191068750Y-83025000D01*
X191706250Y-83025000D01*
X191737493Y-83026535D01*
X191737493Y-83026535D01*
G37*
D13*
X191387500Y-83700000D03*
G04 #@! TD*
M02*
